<svg width="24" height="24" viewBox="0 0 24 24" xmlns="http://www.w3.org/2000/svg">
  <path fill="#000000" d="M4.75 3A1.75 1.75 0 0 0 3 4.75v12.5C3 18.22 3.78 19 4.75 19h2.5C8.22 19 9 18.22 9 17.25V4.75C9 3.78 8.22 3 7.25 3h-2.5Zm.1 2h2.3v9.75h-2.3V5ZM11.25 3c-.97 0-1.75.78-1.75 1.75v12.5c0 .97.78 1.75 1.75 1.75h2.5c.97 0 1.75-.78 1.75-1.75V4.75C15.5 3.78 14.72 3 13.75 3h-2.5Zm.1 2h2.3v9.75h-2.3V5Zm6.08-.33a1.75 1.75 0 0 0-1.22 2.15l2.72 10.92a1.75 1.75 0 0 0 2.12 1.27l.48-.12a1.75 1.75 0 0 0 1.27-2.12L20.08 5.85a1.75 1.75 0 0 0-2.12-1.27l-.53.09Z"/>
  <path fill="#000000" d="M2.5 19h19a1 1 0 1 1 0 2h-19a1 1 0 1 1 0-2Z"/>
</svg>
