<svg width="24" height="24" viewBox="0 0 24 24" xmlns="http://www.w3.org/2000/svg">
  <path fill="#000000" fill-rule="evenodd" clip-rule="evenodd" d="M10.72 2.48c4.52.06 8.12 3.64 8.08 8.08-.02 1.76-.6 3.39-1.58 4.72l4.06 4.02c.52.52.53 1.38.01 1.91-.52.54-1.37.55-1.91.02l-4.05-4.01a8.06 8.06 0 0 1-4.74 1.56c-4.52-.02-8.08-3.62-8.05-8.15.03-4.55 3.64-8.21 8.18-8.15Zm-.05 2.25a5.77 5.77 0 0 0-5.84 5.89 5.73 5.73 0 0 0 5.79 5.84 5.8 5.8 0 0 0 5.89-5.89 5.74 5.74 0 0 0-5.84-5.84Z"/>
  <path fill="#000000" d="M7.08 7.93c.91-1.5 2.38-2.19 4.34-2.04.69.05 1.02.42.98 1.09-.04.63-.42.91-1.13.85-1.2-.1-2.07.3-2.61 1.18-.35.58-.8.7-1.35.36-.56-.34-.64-.82-.23-1.44Z"/>
  <circle cx="3.02" cy="16.92" r="0.76" fill="#000000"/>
</svg>
