<svg width="24" height="24" viewBox="0 0 24 24" xmlns="http://www.w3.org/2000/svg">
  <path fill="#000000" d="M2.7 4.2c2.61-.76 5.45-.32 8.15 1.38.31.2.5.54.5.91v12.68c-2.36-1.36-4.85-1.72-7.5-1.08a1.08 1.08 0 0 1-1.35-1.05V5.16c0-.44.28-.83.7-.97l-.5.01Zm18.6 0c-2.61-.76-5.45-.32-8.15 1.38-.31.2-.5.54-.5.91v12.68c2.36-1.36 4.85-1.72 7.5-1.08a1.08 1.08 0 0 0 1.35-1.05V5.16c0-.44-.28-.83-.7-.97l.5.01Z"/>
  <path fill="#000000" d="M5.1 7.12c1.63-.15 3.04.12 4.4.84v1.56c-1.42-.65-2.86-.87-4.4-.68V7.12Zm0 3.05c1.61-.13 3.05.12 4.4.78v1.57c-1.41-.59-2.86-.8-4.4-.61v-1.74Zm9.4-2.21c1.36-.72 2.77-.99 4.4-.84v1.72c-1.54-.19-2.98.03-4.4.68V7.96Z"/>
  <circle cx="20.92" cy="20.48" r="0.72" fill="#000000"/>
</svg>
