<svg width="24" height="24" viewBox="0 0 24 24" xmlns="http://www.w3.org/2000/svg">
  <path fill="#182431" d="M12 2.75a9.25 9.25 0 1 0 0 18.5 9.25 9.25 0 0 0 0-18.5Zm6.98 8.5h-3.06a14.28 14.28 0 0 0-1.16-5.03 7.78 7.78 0 0 1 4.22 5.03Zm-6.98-7c.5.62 1.07 1.65 1.5 3.04.32 1.03.53 2.18.6 3.46H9.9c.07-1.28.28-2.43.6-3.46.43-1.39 1-2.42 1.5-3.04Zm-2.76 1.97a14.28 14.28 0 0 0-1.16 5.03H5.02a7.78 7.78 0 0 1 4.22-5.03ZM4.75 12.75h3.33c.07 1.89.48 3.64 1.16 5.03a7.78 7.78 0 0 1-4.49-5.03Zm7.25 7c-.5-.62-1.07-1.65-1.5-3.04a12.7 12.7 0 0 1-.6-3.96h4.2c-.07 1.49-.29 2.83-.6 3.96-.43 1.39-1 2.42-1.5 3.04Zm2.76-1.97c.68-1.39 1.09-3.14 1.16-5.03h3.33a7.78 7.78 0 0 1-4.49 5.03Z"/>
</svg>
