<svg width="24" height="24" viewBox="0 0 24 24" xmlns="http://www.w3.org/2000/svg">
  <path fill="#000000" d="M12.14 2.45c2.7.06 4.72 2.05 4.64 4.61-.08 2.59-2.15 4.55-4.77 4.52-2.66-.03-4.7-2.03-4.64-4.56.06-2.62 2.08-4.63 4.77-4.57Zm-.08 2.19a2.33 2.33 0 0 0-2.45 2.42c-.02 1.36 1.01 2.35 2.42 2.35 1.38 0 2.43-1 2.46-2.36.03-1.34-1-2.38-2.43-2.41Z"/>
  <path fill="#000000" d="M8.73 12.79c2.24-.56 4.74-.46 6.73.32 3.15 1.23 5.22 4.04 5.43 7.13.05.73-.39 1.15-1.13 1.08-1.26-.12-2.13-.71-2.87-1.7-1.2-1.61-2.71-2.33-4.85-2.36-2.2-.03-3.78.66-5.04 2.3-.77 1-1.69 1.57-2.96 1.65-.71.05-1.1-.37-1.02-1.08.39-3.53 2.43-6.52 5.71-7.34Z"/>
  <path fill="#000000" d="M3.05 14.08c.59-.16 1.01.04 1.25.6.21.51.04.88-.52 1.1-.59.24-1.02.05-1.3-.55-.24-.53-.05-.91.57-1.15ZM19.88 11.61c.49-.11.84.08 1.04.56.17.43.01.74-.48.93-.51.2-.88.03-1.1-.49-.19-.46-.01-.79.54-1Z"/>
</svg>
