<svg width="24" height="24" viewBox="0 0 24 24" xmlns="http://www.w3.org/2000/svg">
  <path fill="#000000" fill-rule="evenodd" clip-rule="evenodd" d="M12.22 2.36c4.67.08 8.7 3.49 9.35 8.16.68 4.9-2.55 9.55-7.37 10.62-4.97 1.11-9.98-1.79-11.33-6.69C1.54 9.62 4.27 4.5 9.05 2.89c1.06-.36 2.12-.55 3.17-.53Zm-.08 2.17a7.48 7.48 0 0 0-7.32 8.91c.76 4.1 4.72 6.78 8.82 5.64a7.43 7.43 0 0 0 5.57-8.02c-.44-3.73-3.41-6.38-7.07-6.53Z"/>
  <path fill="#000000" d="m16.76 6.83-2.9 7.03-6.98 3 2.86-7.1 7.02-2.93Zm-5.53 4.4-.76 1.88 1.86-.8-1.1-1.08Z"/>
  <path fill="#000000" d="M2.15 7.15c.64-.12 1.05.12 1.23.72.14.48-.07.81-.62.98-.6.19-1.04-.03-1.3-.65-.21-.51.02-.86.69-1.05ZM20.83 16.5c.52-.09.88.13 1.07.65.15.43-.04.73-.56.89-.54.16-.92-.04-1.15-.59-.18-.46.03-.77.64-.95Z"/>
</svg>
