<svg width="1080" height="1920" viewBox="0 0 1080 1920" xmlns="http://www.w3.org/2000/svg">
  <rect width="1080" height="1920" fill="#E8F0E9"/>
  <path fill="#9EB7A3" fill-opacity="0.09" d="M0 0h1080v204c-143-57-288-54-431-9-178 56-382 58-649 4V0Z"/>
  <path fill="#6F9278" fill-opacity="0.075" d="M0 1690c116-80 235-107 356-80 89 20 151 75 239 83 136 12 241-75 485-109v336H0v-230Z"/>
  <path fill="#567B63" fill-opacity="0.055" d="M0 1790c178-92 316-104 451-43 115 52 218 52 328 4 87-38 180-52 301-34v203H0v-130Z"/>
  <g fill="#557A62" fill-opacity="0.105">
    <path d="M0 318c42-51 88-78 139-82-19 21-28 42-26 64 30-20 62-29 96-25-38 26-59 58-65 96-50-21-98-25-144-12v-41Z"/>
    <path d="M1080 487c-39-45-83-68-131-69 17 18 25 38 23 59-29-17-58-24-90-19 35 22 56 51 64 86 45-20 90-25 134-15v-42Z"/>
    <path d="M0 1331c34-36 73-55 116-57-13 17-18 34-14 51 24-14 49-18 75-12-28 18-44 42-48 72-43-14-86-15-129-2v-52Z"/>
  </g>
  <g fill="none" stroke="#567B63" stroke-linecap="round" stroke-opacity="0.09">
    <path stroke-width="3" d="M32 0c16 74 49 135 101 183M1048 0c-12 65-41 119-87 162M0 1114c47-29 91-42 134-38M1080 1264c-47-24-91-32-133-24"/>
    <path stroke-width="2" d="M53 791c47-15 91-14 132 4M897 921c47-14 91-11 132 8"/>
  </g>
</svg>
