<svg width="1080" height="1920" viewBox="0 0 1080 1920" xmlns="http://www.w3.org/2000/svg">
  <rect width="1080" height="1920" fill="#15201B"/>
  <path fill="#9BB9A2" fill-opacity="0.055" d="M0 0h1080v213c-144-53-287-48-430-5-176 53-381 54-650 2V0Z"/>
  <path fill="#7FA58A" fill-opacity="0.07" d="M0 1686c119-77 237-101 354-74 91 21 155 74 240 82 137 13 243-71 486-104v330H0v-234Z"/>
  <path fill="#A8C2AE" fill-opacity="0.04" d="M0 1788c177-88 315-99 449-41 115 50 220 51 330 6 86-36 180-49 301-31v198H0v-132Z"/>
  <g fill="#94B49C" fill-opacity="0.085">
    <path d="M0 318c42-49 88-75 139-79-19 20-28 40-26 61 30-19 62-27 96-23-38 25-59 55-65 92-50-20-98-24-144-11v-40Z"/>
    <path d="M1080 485c-39-43-83-65-131-66 17 18 25 37 23 57-29-16-58-23-90-18 35 22 56 49 64 83 45-20 90-24 134-15v-41Z"/>
    <path d="M0 1330c34-35 73-53 116-55-13 17-18 33-14 50 24-14 49-18 75-12-28 18-44 41-48 70-43-14-86-15-129-2v-51Z"/>
  </g>
  <g fill="none" stroke="#A4C0AA" stroke-linecap="round" stroke-opacity="0.07">
    <path stroke-width="3" d="M31 0c16 72 50 132 102 178M1049 0c-12 64-41 116-88 159M0 1112c47-28 92-40 135-37M1080 1260c-47-23-91-31-133-23"/>
    <path stroke-width="2" d="M51 792c48-14 92-13 133 5M897 919c47-13 91-10 132 8"/>
  </g>
</svg>
