<svg width="1080" height="1920" viewBox="0 0 1080 1920" xmlns="http://www.w3.org/2000/svg">
  <rect width="1080" height="1920" fill="#F8F4EA"/>
  <rect x="34" y="34" width="1012" height="1852" rx="8" fill="none" stroke="#6F7D70" stroke-opacity="0.34" stroke-width="3"/><rect x="48" y="48" width="984" height="1824" rx="5" fill="none" stroke="#9A826F" stroke-opacity="0.25" stroke-width="2"/>
  <g fill="none" stroke="#665046" stroke-opacity="0.42" stroke-width="8" stroke-linecap="round"><path d="M0 212c78-5 150-48 216-142M71 174c63 10 111 0 151-36M1080 1640c-91 20-173 85-249 214M1007 1693c-55-2-101 18-142 55"/></g>
  <g fill="#A75C58" fill-opacity="0.76"><circle cx="84" cy="160" r="17"/><circle cx="134" cy="127" r="14"/><circle cx="188" cy="83" r="19"/><circle cx="991" cy="1704" r="17"/><circle cx="940" cy="1745" r="14"/><circle cx="883" cy="1811" r="19"/></g>
  <g fill="#D8AAA3" fill-opacity="0.65"><circle cx="113" cy="99" r="11"/><circle cx="46" cy="193" r="10"/><circle cx="1025" cy="1668" r="11"/><circle cx="915" cy="1782" r="10"/></g>
  <g transform="translate(795 111)" fill="none" stroke="#637E70" stroke-opacity="0.38"><ellipse cx="96" cy="36" rx="72" ry="19" stroke-width="4"/><path d="M24 36c5 69 30 93 72 93s67-24 72-93M169 56c42-3 52 50 7 60" stroke-width="5"/><path d="M65 4c-22-25 20-39-1-68M105 4c-22-25 20-39-1-68" stroke-width="4"/></g>
  <path d="M70 290h940M70 1632h940" stroke="#7D6E60" stroke-opacity="0.14" stroke-width="2"/>
</svg>
