<svg width="1080" height="1920" viewBox="0 0 1080 1920" xmlns="http://www.w3.org/2000/svg">
  <rect width="1080" height="1920" fill="#261D22"/>
  <g stroke="#C07D86" stroke-opacity="0.12" stroke-width="2"><path d="M72 330h936M72 438h936M72 546h936M72 654h936M72 762h936M72 870h936M72 978h936M72 1086h936M72 1194h936M72 1302h936M72 1410h936M72 1518h936"/></g>
  <path d="M0 0h1080v118c-90 34-180 34-270 0-90 34-180 34-270 0-90 34-180 34-270 0-90 34-180 34-270 0V0Z" fill="#4B303A"/>
  <path d="M0 90c90 34 180 34 270 0 90 34 180 34 270 0 90 34 180 34 270 0 90 34 180 34 270 0" fill="none" stroke="#7397B0" stroke-width="8" stroke-opacity="0.45"/>
  <g fill="#C95F69" stroke="#E68B93" stroke-width="3"><path d="M73 188c-35-50 38-76 64-25 25-51 98-25 63 25-26 37-63 61-63 61s-38-24-64-61Z"/><path d="M921 1696c-32-46 35-70 59-23 23-47 90-23 58 23-24 35-58 56-58 56s-35-21-59-56Z"/></g>
  <g fill="#71866D"><path d="M130 145c-5-31 10-49 41-55-3 27-15 45-41 55Z"/><path d="M974 1660c-4-28 10-45 38-51-3 25-14 41-38 51Z"/></g>
  <g fill="#F29AA2" fill-opacity="0.22"><circle cx="52" cy="760" r="7"/><circle cx="1025" cy="1004" r="8"/><circle cx="66" cy="1450" r="5"/><circle cx="1006" cy="523" r="5"/></g>
</svg>
