<svg width="1080" height="1920" viewBox="0 0 1080 1920" xmlns="http://www.w3.org/2000/svg">
  <rect width="1080" height="1920" fill="#FFF9F2"/>
  <g stroke="#E9A8AB" stroke-opacity="0.22" stroke-width="2"><path d="M72 330h936M72 438h936M72 546h936M72 654h936M72 762h936M72 870h936M72 978h936M72 1086h936M72 1194h936M72 1302h936M72 1410h936M72 1518h936"/></g>
  <path d="M0 0h1080v118c-90 34-180 34-270 0-90 34-180 34-270 0-90 34-180 34-270 0-90 34-180 34-270 0V0Z" fill="#F7CDD0"/>
  <path d="M0 90c90 34 180 34 270 0 90 34 180 34 270 0 90 34 180 34 270 0 90 34 180 34 270 0" fill="none" stroke="#A9C8DF" stroke-width="9" stroke-opacity="0.7"/>
  <g fill="#E97076" stroke="#B84D55" stroke-width="4"><path d="M73 188c-35-50 38-76 64-25 25-51 98-25 63 25-26 37-63 61-63 61s-38-24-64-61Z"/><path d="M921 1696c-32-46 35-70 59-23 23-47 90-23 58 23-24 35-58 56-58 56s-35-21-59-56Z"/></g>
  <g fill="#78986F"><path d="M130 145c-5-31 10-49 41-55-3 27-15 45-41 55Z"/><path d="M974 1660c-4-28 10-45 38-51-3 25-14 41-38 51Z"/></g>
  <g fill="none" stroke="#E8A0A7" stroke-width="5" stroke-linecap="round"><path d="M820 66c40-43 85-21 70 17-17 42-70 5-70-17Zm0 0c-41-43-86-21-71 17 17 42 71 5 71-17Z"/><path d="M820 66c-11 31-31 55-58 75m58-75c11 31 31 55 58 75"/></g>
  <g fill="#F2B4B7" fill-opacity="0.3"><circle cx="52" cy="760" r="7"/><circle cx="1025" cy="1004" r="8"/><circle cx="66" cy="1450" r="5"/><circle cx="1006" cy="523" r="5"/></g>
</svg>
