<svg width="32" height="32" viewBox="0 0 32 32" xmlns="http://www.w3.org/2000/svg"><path d="M30 8H17M7 25v4" fill="none" stroke="#A84550" stroke-width="1.8" stroke-linecap="round"/><path d="M7 5c4-4 8 0 7 4 4-1 7 3 4 6 1 4-4 7-7 4-3 3-8 0-7-4-4-1-4-6-1-8 0-3 3-4 4-2Z" fill="#B84F5B" stroke="#7C3038" stroke-width="1.1"/><path d="M8 10c4-2 6 3 3 5-3 2-6-2-3-4 2-1 4 0 4 1" fill="none" stroke="#E7A7AC" stroke-width="1.4" stroke-linecap="round"/><path d="M13 20c6-3 11-2 15 3-6 2-11 1-15-3Z" fill="#71806C"/></svg>
