<svg width="1000" height="260" viewBox="0 0 1000 260" xmlns="http://www.w3.org/2000/svg">
  <rect x="36" y="36" width="928" height="188" rx="28" fill="#F8E7E1" fill-opacity="0.32" stroke="#A84550" stroke-opacity="0.72" stroke-width="3"/>
  <path d="M54 52c10-24 25-30 45-14M55 207c-18-8-25-23-18-43M946 52c-10-24-25-30-45-14M945 207c18-8 25-23 18-43" fill="none" stroke="#A84550" stroke-width="3" stroke-linecap="round"/>
  <path d="M84 36h832M84 224h832" stroke="#B99A6B" stroke-opacity="0.58" stroke-width="2"/>
  <g transform="translate(8 154)">
    <path d="M62 50c29-18 56-15 78 14-33 12-57 7-78-14ZM45 58c-21 10-30 27-25 49 23-7 35-22 25-49Z" fill="#71806C"/>
    <path d="M52 17c13-12 27 1 22 14 14-5 26 9 17 21 15 5 14 23 0 28-2 15-20 19-29 7-11 11-28 2-26-13-15-1-21-18-10-28-9-12 2-26 17-22-1-15 16-22 27-11Z" fill="#A84550" stroke="#7C3038" stroke-width="2"/>
    <path d="M52 34c10-8 20 1 15 11 10-3 16 8 9 15-1 11-14 15-22 8-11 3-17-10-10-17-5-8 1-17 8-17Z" fill="#D78990"/>
    <path d="M52 43c13-3 18 13 8 20-9 7-21-3-15-12 4-6 13-6 17-1" fill="none" stroke="#7C3038" stroke-width="2.5" stroke-linecap="round"/>
    <g transform="translate(42 -8) scale(.72)"><path d="M52 17c13-12 27 1 22 14 14-5 26 9 17 21 15 5 14 23 0 28-2 15-20 19-29 7-11 11-28 2-26-13-15-1-21-18-10-28-9-12 2-26 17-22-1-15 16-22 27-11Z" fill="#B85761" stroke="#7C3038" stroke-width="3"/><path d="M52 36c12-8 22 5 14 14 10 0 12 13 3 17-8 7-21-1-17-12-9-4-8-16 0-19Z" fill="#E09AA0"/><path d="M53 44c10-1 13 11 5 16" fill="none" stroke="#7C3038" stroke-width="3" stroke-linecap="round"/></g>
    <g transform="translate(-7 48) scale(.62)"><path d="M52 17c13-12 27 1 22 14 14-5 26 9 17 21 15 5 14 23 0 28-2 15-20 19-29 7-11 11-28 2-26-13-15-1-21-18-10-28-9-12 2-26 17-22-1-15 16-22 27-11Z" fill="#9E3E49" stroke="#7C3038" stroke-width="3"/><path d="M52 36c12-8 22 5 14 14 10 0 12 13 3 17-8 7-21-1-17-12-9-4-8-16 0-19Z" fill="#D47A83"/></g>
  </g>
  <g transform="translate(992 106) rotate(180)">
    <path d="M62 50c29-18 56-15 78 14-33 12-57 7-78-14Z" fill="#71806C"/>
    <path d="M52 17c13-12 27 1 22 14 14-5 26 9 17 21 15 5 14 23 0 28-2 15-20 19-29 7-11 11-28 2-26-13-15-1-21-18-10-28-9-12 2-26 17-22-1-15 16-22 27-11Z" fill="#A84550" stroke="#7C3038" stroke-width="2"/>
    <path d="M52 34c10-8 20 1 15 11 10-3 16 8 9 15-1 11-14 15-22 8-11 3-17-10-10-17-5-8 1-17 8-17Z" fill="#D78990"/>
    <path d="M52 43c13-3 18 13 8 20-9 7-21-3-15-12 4-6 13-6 17-1" fill="none" stroke="#7C3038" stroke-width="2.5" stroke-linecap="round"/>
  </g>
</svg>
