<svg width="1000" height="260" viewBox="0 0 1000 260" xmlns="http://www.w3.org/2000/svg">
  <path d="M54 30h892c-18 18-18 43 0 60v80c-18 18-18 43 0 60H54c18-17 18-42 0-60V90c18-17 18-42 0-60Z" fill="#E8CFA5" fill-opacity="0.28" stroke="#A9753D" stroke-opacity="0.62" stroke-width="3"/>
  <path d="M70 48h860M70 212h860" stroke="#C99355" stroke-width="2" stroke-opacity="0.72"/>
  <path d="M54 30c-33 7-39 35-13 51 15 9 30-1 29-17M946 230c33-7 39-35 13-51-15-9-30 1-29 17" fill="none" stroke="#A9753D" stroke-width="4" stroke-linecap="round"/>
  <circle cx="91" cy="130" r="5" fill="#C99355"/><circle cx="909" cy="130" r="5" fill="#C99355"/>
</svg>
