<svg xmlns="http://www.w3.org/2000/svg" width="300" height="440" viewBox="0 0 300 440"><rect width="300" height="440" rx="10" fill="#EEECE4"/><path d="M-12 69c65-60 119 35 181-13 35-27 89-34 143 7" fill="none" stroke="#2F3438" stroke-width="36" opacity=".18"/><path d="M-3 387c70-82 132 20 181-42 31-40 76-45 129-16" fill="none" stroke="#1E2225" stroke-width="49" opacity=".32"/><path d="M35 96c40-7 68 6 86 41-47 3-73-12-86-41z" fill="#31363A" opacity=".7"/><rect x="42" y="118" width="216" height="224" fill="#FAF9F5" opacity=".8"/><circle cx="242" cy="355" r="25" fill="none" stroke="#9C3232" stroke-width="4" opacity=".72"/><path d="M228 355h28M242 341v28" stroke="#9C3232" stroke-width="2"/></svg>
