<svg width="64" height="64" viewBox="0 0 64 64" xmlns="http://www.w3.org/2000/svg">
  <rect width="64" height="64" rx="18" fill="#1677D2"/>
  <path fill="#EAF5FF" d="M12 18.5c6.1-1.8 12.5-.8 18.7 3.1.8.5 1.3 1.4 1.3 2.3v25.4c-5.5-3.1-11.2-4-17.4-2.5A2.7 2.7 0 0 1 11.2 44V20.9c0-1.1.7-2 1.8-2.4h-1Zm40 0c-6.1-1.8-12.5-.8-18.7 3.1-.8.5-1.3 1.4-1.3 2.3v25.4c5.5-3.1 11.2-4 17.4-2.5a2.7 2.7 0 0 0 3.4-2.8V20.9c0-1.1-.7-2-1.8-2.4h1Z"/>
  <path d="M18 27c3.7-.3 6.8.3 9.8 1.9M18 34c3.7-.3 6.8.3 9.8 1.9M46 27c-3.7-.3-6.8.3-9.8 1.9" fill="none" stroke="#62B7FF" stroke-width="2.2" stroke-linecap="round"/>
  <path fill="#BFE4FF" d="m50 10 1.8 4.2L56 16l-4.2 1.8L50 22l-1.8-4.2L44 16l4.2-1.8L50 10Z"/>
</svg>
